# AST/ASF file generated using VICON BodyLanguage
# -----------------------------------------------
:version 1.10
:name VICON
:units
  mass 1.0
  length 0.45
  angle deg
:documentation
   .ast/.asf automatically generated from VICON data using
   VICON BodyBuilder and BodyLanguage model FoxedUp or BRILLIANT.MOD
:root
   order TX TY TZ RX RY RZ
   axis XYZ
   position 0 0 0  
   orientation 0 0 0 
:bonedata
  begin
     id 1 
     name lhipjoint
     direction 0.662698 -0.695252 0.27831 
     length 2.53073 
     axis 0 0 0  XYZ
  end
  begin
     id 2 
     name lfemur
     direction 0.34202 -0.939693 0  
     length 7.16147  
     axis 0 0 20  XYZ
    dof rx ry rz
    limits (-160.0 20.0)
           (-70.0 70.0)
           (-60.0 70.0)
  end
  begin
     id 3 
     name ltibia
     direction 0.34202 -0.939693 0   
     length 7.63967   
     axis 0 0 20   XYZ
    dof rx
    limits (-10.0 170.0)
  end
  begin
     id 4 
     name lfoot
     direction 0.0938457 -0.257721 0.961651   
     length 1.89793   
     axis -90 7.62852e-016 20   XYZ
    dof rx rz
    limits (-45.0 90.0)
           (-70.0 20.0)
  end
  begin
     id 5 
     name ltoes
     direction -0.00116841 -0.0030592 0.999995   
     length 0.955649   
     axis -90 7.62852e-016 20   XYZ
    dof rx
    limits (-90.0 20.0)
  end
  begin
     id 6 
     name rhipjoint
     direction -0.649445 -0.705948 0.282592   
     length 2.49238  
     axis 0 0 0  XYZ 
  end
  begin
     id 7 
     name rfemur
     direction -0.34202 -0.939693 0   
     length 6.90728   
     axis 0 0 -20   XYZ
    dof rx ry rz
    limits (-160.0 20.0)
           (-70.0 70.0)
           (-70.0 60.0)
  end
  begin
     id 8 
     name rtibia
     direction -0.34202 -0.939693 0   
     length 7.72868   
     axis 0 0 -20   XYZ
    dof rx
    limits (-10.0 170.0)
 end
 begin
     id 9 
     name rfoot
     direction -0.0920068 -0.252865 0.963117   
     length 1.97476  
     axis -90 -7.62852e-016 -20   XYZ
    dof rx rz
    limits (-45.0 90.0)
           (-20.0 70.0)
  end
  begin
     id 10 
     name rtoes
     direction 0.000391322 0.00230649 0.999997   
     length 0.992641   
     axis -90 -7.62852e-016 -20   XYZ
    dof rx
    limits (-90.0 20.0)
  end
  begin
     id 11 
     name lowerback
     direction -0.00875327 0.998321 -0.0572635   
     length 2.20024   
     axis 0 0 0   XYZ
    dof rx ry rz
    limits (-20.0 45.0)
           (-30.0 30.0)
           (-30.0 30.0)
  end
  begin
     id 12 
     name upperback
     direction 0.00753931 0.999972 -0.000360425   
     length 2.20538   
     axis 0 0 0   XYZ
    dof rx ry rz
    limits (-20.0 45.0)
           (-30.0 30.0)
           (-30.0 30.0)
  end
  begin
     id 13 
     name thorax
     direction 0.0117767 0.999601 0.0256663   
     length 2.21508   
     axis 0 0 0   XYZ
    dof rx ry rz
    limits (-20.0 45.0)
           (-30.0 30.0)
           (-30.0 30.0)
  end
  begin
     id 14 
     name lowerneck
     direction 0.060228 0.994909 0.0807986   
     length 1.7607   
     axis 0 0 0   XYZ
    dof rx ry rz
    limits (-20.0 45.0)
           (-30.0 30.0)
           (-30.0 30.0)
  end
  begin
     id 15 
     name upperneck
     direction -0.0563647 0.959594 -0.275685   
     length 1.75612   
     axis 0 0 0   XYZ
    dof rx ry rz
    limits (-20.0 45.0)
           (-30.0 30.0)
           (-30.0 30.0)
  end
  begin
     id 16
     name head
     direction -0.0161544 0.99458 -0.102714  
     length 1.79288  
     axis 0 0 0   XYZ
    dof rx ry rz
    limits (-20.0 45.0)
           (-30.0 30.0)
           (-30.0 30.0)
  end
  begin
     id 17 
     name lclavicle
     direction 0.93913 0.332189 -0.087669  
     length 3.52087  
     axis 0 0 0   XYZ
    dof ry rz
    limits (-20.0 10.0)
           (0.0 20.0)
  end
  begin
     id 18 
     name lhumerus
     direction 1 -4.48974e-011 -2.70836e-027   
     length 5.35289   
     axis -180 -30 -90   XYZ
    dof rx ry rz
    limits (-60.0 90.0)
           (-90.0 90.0)
           (-90.0 90.0)
  end
  begin
     id 19
     name lradius
     direction 1 -4.48961e-011 -9.76021e-027   
     length 3.27727   
     axis -180 -30 -90   XYZ
    dof rx
    limits (-10.0 170.0)
  end
  begin
     id 20
     name lwrist
     direction 1 -4.49103e-011 -2.23668e-026   
     length 1.63864   
     axis 1.44924e-014 90 90   XYZ
    dof ry
    limits (-180.0 0.0)
 end
  begin
     id 21 
     name lhand
     direction 1 3.0697e-005 0.000161777   
     length 0.54443   
     axis 2.85318e-014 90 90   XYZ
    dof rx rz
    limits (-90.0 90.0)
           (-45.0 45.0)
  end
  begin
     id 22 
     name lfingers
     direction 1 -4.49027e-011 -8.9447e-026   
     length 0.438912   
     axis 5.70628e-014 90 90   XYZ
    dof rx
    limits (0.0 90.0)
  end
  begin
     id 23
     name lthumb
     direction 0.707058 2.6516e-005 0.707156   
     length 0.630274   
     axis -90 45 -3.53137e-014   XYZ
    dof rx rz
    limits (-45.0 45.0)
           (-45.0 45.0)
  end
  begin
     id 24 
     name rclavicle
     direction -0.95274 0.284984 -0.105215   
     length 3.43401  
     axis 0 0 0   XYZ 
    dof ry rz
    limits (-10.0 20.0)
           (-20.0 0.0)
  end
  begin
     id 25 
     name rhumerus
     direction -0.999999 -0.000575019 -0.00106829  
     length 5.52077   
     axis -180 30 90   XYZ
    dof rx ry rz
    limits (-90.0 60.0)
           (-90.0 90.0)
           (-90.0 90.0)
  end
  begin
     id 26 
     name rradius
     direction -1 -4.4879e-011 -6.35415e-027   
     length 3.32364   
     axis -180 30 90   XYZ
    dof rx
    limits (-10.0 170.0)
  end
  begin
     id 27 
     name rwrist
     direction -1 -4.49048e-011 -9.98542e-027   
     length 1.66182   
     axis 6.32482e-015 -90 -90   XYZ
    dof ry
    limits (-180.0 0.0)
  end
  begin
     id 28
     name rhand
     direction -1 -4.48978e-011 -1.99771e-026   
     length 0.732235   
     axis 1.27479e-014 -90 -90   XYZ
    dof rx rz
    limits (-90.0 90.0)
           (-45.0 45.0)
  end
  begin
     id 29
     name rfingers
     direction -1 -4.49144e-011 -3.99245e-026   
     length 0.590347   
     axis 2.5496e-014 -90 -90   XYZ
    dof rx
    limits (0.0 90.0)
  end
  begin
     id 30
     name rthumb
     direction -0.707107 -6.35121e-011 0.707107   
     length 0.847624   
     axis -90 -45 -2.82974e-014   XYZ
    dof rx rz
    limits (-45.0 45.0)
           (-45.0 45.0)
  end
:hierarchy
  begin
    root lhipjoint rhipjoint lowerback
    lhipjoint lfemur
    lfemur ltibia
    ltibia lfoot
    lfoot ltoes
    rhipjoint rfemur
    rfemur rtibia
    rtibia rfoot
    rfoot rtoes
    lowerback upperback
    upperback thorax
    thorax lowerneck lclavicle rclavicle
    lowerneck upperneck
    upperneck head
    lclavicle lhumerus
    lhumerus lradius
    lradius lwrist
    lwrist lhand lthumb
    lhand lfingers
    rclavicle rhumerus
    rhumerus rradius
    rradius rwrist
    rwrist rhand rthumb
    rhand rfingers
  end

#!OML:ASF G:\Work\Work\Patient Classification 1\Elijah\terrain1\Elijah.ASF
:FULLY-SPECIFIED
:DEGREES
3099
root 14.531 20.6142 24.3778 364.929 -11.113 -359.825
lowerback 9.14397 -0.416538 3.27775
upperback 3.22729 -0.222198 2.39088
thorax -1.78017 -0.115507 0.65195
lowerneck -21.7953 1.09291 -1.10142
upperneck 38.3334 1.89369 0.265827
head 17.9141 0.593048 0.709306
rclavicle -3.02153e-014 5.56597e-015
rhumerus -38.17 4.24377 -79.0549
rradius 37.5742
rwrist -4.10041
rhand -15.9718 23.3665
rfingers 7.12502
rthumb 10.2274 -6.36486
lclavicle -3.02153e-014 5.56597e-015
lhumerus -45.395 0.00634073 85.0959
lradius 33.2364
lwrist 1.2969
lhand -14.4857 25.7498
lfingers 7.12502
lthumb 11.6607 55.4053
rfemur -28.6485 6.29184 22.9812
rtibia 62.0542
rfoot -29.3016 -5.466
rtoes -14.5729
lfemur -52.0636 -0.301105 -14.9457
ltibia 69.9271
lfoot 1.7397 -10.9152
ltoes -15.598
3100
root 14.5228 20.5764 24.496 364.768 -12.8227 -360.456
lowerback 9.20235 -0.0778421 3.26901
upperback 3.41219 0.22395 2.68799
thorax -1.61607 0.10611 0.917464
lowerneck -21.7587 1.23569 -1.20733
upperneck 38.2926 2.16923 0.223383
head 17.8777 0.678703 0.764951
rclavicle -7.7526e-015 -3.18055e-014
rhumerus -38.1686 4.45005 -78.8608
rradius 37.8803
rwrist -4.11378
rhand -15.7186 22.6928
rfingers 7.12502
rthumb 10.4716 -7.02636
lclavicle -7.7526e-015 -3.18055e-014
lhumerus -45.9489 -0.0263638 85.3417
lradius 32.7275
lwrist 1.10206
lhand -14.3526 25.5559
lfingers 7.12502
lthumb 11.7891 55.2041
rfemur -28.6427 7.84143 23.6533
rtibia 62.9065
rfoot -28.8404 -5.36662
rtoes -15.8832
lfemur -50.6666 0.203388 -13.6333
ltibia 66.8389
lfoot 3.22725 -11.1642
ltoes -15.8182
3101
root 14.577 20.5596 24.5954 365.146 -13.0237 -360.158
lowerback 8.88335 -0.33161 3.44906
upperback 3.23997 -0.107499 2.60886
thorax -1.62127 -0.0583278 0.767863
lowerneck -21.8547 1.40559 -1.29399
upperneck 38.3115 2.49631 0.147189
head 17.9098 0.780737 0.814616
rclavicle -9.93923e-016 1.74931e-014
rhumerus -38.3017 4.7233 -78.6976
rradius 38.4432
rwrist -4.23139
rhand -15.443 21.7121
rfingers 7.12502
rthumb 10.7375 -7.99351
lclavicle -9.93923e-016 1.74931e-014
lhumerus -46.6286 -0.330459 85.7572
lradius 32.4126
lwrist 1.18609
lhand -13.6399 25.7703
lfingers 7.12502
lthumb 12.4763 55.3779
rfemur -29.2768 7.07732 22.9081
rtibia 63.8023
rfoot -28.9236 -4.49374
rtoes -17.698
lfemur -50.1077 -1.15822 -13.5029
ltibia 63.6154
lfoot 4.92946 -10.7574
ltoes -15.1426
3102
root 14.5704 20.5477 24.7418 364.696 -14.8045 -359.531
lowerback 8.98021 -0.104106 2.16948
upperback 3.16543 0.0917239 2.61793
thorax -1.75388 0.0344762 1.47544
lowerneck -21.5344 1.74619 -1.17779
upperneck 38.4349 3.07897 -0.151956
head 17.901 0.980503 0.774292
rclavicle -2.64384e-014 -4.13472e-014
rhumerus -38.8896 5.76858 -78.7312
rradius 38.8734
rwrist -4.64811
rhand -15.4445 21.6231
rfingers 7.12502
rthumb 10.7361 -8.08259
lclavicle -2.64384e-014 -4.13472e-014
lhumerus -47.9617 -0.397296 86.2333
lradius 32.3874
lwrist 1.36825
lhand -13.0597 26.0431
lfingers 7.12502
lthumb 13.0356 55.6158
rfemur -29.0957 8.1886 22.0857
rtibia 64.6582
rfoot -28.7976 -3.99228
rtoes -18.3842
lfemur -48.1954 -1.23077 -13.5068
ltibia 60.3782
lfoot 6.36782 -10.1912
ltoes -13.6389
3103
root 14.6117 20.5139 24.8312 364.836 -15.3141 -358.963
lowerback 9.14774 -0.336841 1.66893
upperback 2.83414 -0.243933 2.53567
thorax -2.18458 -0.134007 1.70982
lowerneck -21.2001 2.06842 -1.02329
upperneck 38.4332 3.58481 -0.380842
head 17.8208 1.16941 0.740951
rclavicle -1.13307e-014 -8.74653e-015
rhumerus -39.0901 6.48073 -78.7428
rradius 39.0873
rwrist -4.87735
rhand -15.4769 22.053
rfingers 7.12502
rthumb 10.7048 -7.65429
lclavicle -1.13307e-014 -8.74653e-015
lhumerus -49.0388 -0.604985 86.7439
lradius 32.451
lwrist 1.61306
lhand -12.6081 26.4279
lfingers 7.12502
lthumb 13.471 55.9723
rfemur -29.6952 7.74547 21.1036
rtibia 65.5699
rfoot -28.0914 -3.18452
rtoes -16.7192
lfemur -47.3831 -2.46833 -13.5436
ltibia 57.0991
lfoot 8.25494 -9.49354
ltoes -13.1964
3104
root 14.6373 20.4825 24.9542 364.727 -16.4258 -358.89
lowerback 9.09956 -0.26871 1.64092
upperback 2.82573 -0.160232 2.46863
thorax -2.16832 -0.0925715 1.64664
lowerneck -21.0667 2.2614 -0.901025
upperneck 38.4361 3.85552 -0.471176
head 17.7929 1.28015 0.731114
rclavicle 3.57812e-015 3.97569e-015
rhumerus -39.1319 6.54337 -78.6856
rradius 39.487
rwrist -5.04402
rhand -15.4641 21.9626
rfingers 7.12502
rthumb 10.7171 -7.74402
lclavicle 3.57812e-015 3.97569e-015
lhumerus -49.9208 -1.33624 87.3952
lradius 32.5032
lwrist 1.9132
lhand -12.4651 26.386
lfingers 7.12502
lthumb 13.6087 55.9212
rfemur -29.7038 8.0517 20.7375
rtibia 66.3027
rfoot -27.36 -2.52355
rtoes -14.2592
lfemur -45.9043 -3.13718 -13.0712
ltibia 53.9654
lfoot 9.76188 -9.22782
ltoes -15.8587
3105
root 14.6656 20.4799 25.1076 364.292 -17.4441 -357.921
lowerback 8.82616 -0.261913 0.851046
upperback 2.82632 -0.234553 2.20291
thorax -2.01396 -0.128834 1.82149
lowerneck -20.9879 2.51173 -0.705379
upperneck 38.5312 4.24079 -0.688533
head 17.8396 1.42558 0.675563
rclavicle 3.43897e-014 -2.06736e-014
rhumerus -39.2342 6.92023 -78.7234
rradius 39.7898
rwrist -5.62364
rhand -15.7314 22.1038
rfingers 7.12502
rthumb 10.4592 -7.61598
lclavicle 3.43897e-014 -2.06736e-014
lhumerus -51.0097 -1.92228 88.1597
lradius 32.5923
lwrist 2.21877
lhand -12.8108 25.8544
lfingers 7.12502
lthumb 13.2756 55.4116
rfemur -29.3716 8.00984 19.3109
rtibia 66.9051
rfoot -27.7017 -1.42236
rtoes -14.6358
lfemur -44.0958 -4.26829 -13.5702
ltibia 50.85
lfoot 11.0391 -8.5199
ltoes -17.2639
3106
root 14.6935 20.4456 25.2212 364.392 -18.1943 -358.135
lowerback 8.8745 -0.394295 1.01587
upperback 2.72342 -0.390133 2.30443
thorax -2.14338 -0.2064 1.8513
lowerneck -21.0485 2.82409 -0.359935
upperneck 38.6077 4.70549 -1.01031
head 17.925 1.60786 0.564643
rclavicle -6.34123e-014 5.56597e-015
rhumerus -39.3139 7.67917 -78.8483
rradius 40.1209
rwrist -6.42704
rhand -16.0191 22.3968
rfingers 7.12502
rthumb 10.1817 -7.33686
lclavicle -6.34123e-014 5.56597e-015
lhumerus -52.0139 -2.17504 88.772
lradius 32.9018
lwrist 2.5131
lhand -12.6139 25.7031
lfingers 7.12502
lthumb 13.4654 55.2479
rfemur -29.4888 8.08082 19.2213
rtibia 67.4536
rfoot -27.9749 -0.685844
rtoes -17.1008
lfemur -42.9944 -5.32244 -12.687
ltibia 47.9908
lfoot 12.6956 -7.63201
ltoes -17.0519
3107
root 14.7248 20.4189 25.3666 364.296 -18.8003 -357.981
lowerback 8.79153 -0.579136 1.09818
upperback 2.52736 -0.626725 2.21889
thorax -2.29632 -0.323259 1.74196
lowerneck -20.7546 3.11069 0.0192186
upperneck 38.7237 5.08265 -1.2694
head 17.9429 1.77264 0.451463
rclavicle -2.28602e-014 1.35174e-014
rhumerus -40.0826 8.37305 -79.0021
rradius 41.0546
rwrist -6.95665
rhand -15.9878 22.0277
rfingers 7.12502
rthumb 10.2119 -7.70445
lclavicle -2.28602e-014 1.35174e-014
lhumerus -53.3138 -2.53859 89.3493
lradius 33.2516
lwrist 2.70645
lhand -11.8314 25.5591
lfingers 7.12502
lthumb 14.2195 55.0523
rfemur -29.1773 7.78034 18.6435
rtibia 68.0154
rfoot -28.2154 0.312668
rtoes -18.1566
lfemur -41.5334 -6.59789 -12.3912
ltibia 45.2897
lfoot 13.918 -7.01943
ltoes -17.6417
3108
root 14.7567 20.4035 25.5427 364.093 -19.3938 -357.481
lowerback 7.55082 -0.743296 0.987485
upperback 2.9987 -0.901041 2.02771
thorax -1.11895 -0.461659 1.60866
lowerneck -20.9331 3.33512 0.206499
upperneck 38.5311 5.41622 -1.45401
head 17.9005 1.90537 0.405149
rclavicle 8.54774e-015 1.51076e-014
rhumerus -39.693 7.62361 -78.5198
rradius 41.7434
rwrist -6.17145
rhand -15.4941 21.6103
rfingers 7.12502
rthumb 10.6882 -8.09782
lclavicle 8.54774e-015 1.51076e-014
lhumerus -53.654 -2.82846 89.9174
lradius 33.5459
lwrist 2.54974
lhand -11.1805 25.2869
lfingers 7.12502
lthumb 14.8466 54.735
rfemur -28.6744 7.16551 17.5932
rtibia 68.6426
rfoot -28.7438 1.51303
rtoes -18.9
lfemur -39.9617 -8.06166 -12.6256
ltibia 42.9124
lfoot 14.4745 -6.35594
ltoes -19.2397
3109
root 14.8072 20.3471 25.6407 364.528 -19.9106 -357.636
lowerback 7.7419 -0.936266 1.25308
upperback 2.50553 -1.11724 2.12537
thorax -1.73181 -0.567422 1.58823
lowerneck -20.5971 3.57591 0.358147
upperneck 38.6904 5.77853 -1.61222
head 17.9234 2.04501 0.374218
rclavicle -1.45113e-014 2.38542e-015
rhumerus -40.0135 8.24076 -78.4602
rradius 41.9112
rwrist -6.53426
rhand -15.4894 21.4944
rfingers 7.12502
rthumb 10.6927 -8.21346
lclavicle -1.45113e-014 2.38542e-015
lhumerus -55.0995 -2.78306 90.5261
lradius 34.2148
lwrist 2.42334
lhand -10.8071 25.3644
lfingers 7.12502
lthumb 15.2063 54.7856
rfemur -29.4818 6.66835 17.3106
rtibia 69.7645
rfoot -28.95 2.38943
rtoes -20.8192
lfemur -39.5593 -9.39536 -11.8928
ltibia 40.847
lfoot 15.2718 -5.42593
ltoes -20.8862
3110
root 14.7725 20.2831 25.7682 364.095 -21.9966 -357.916
lowerback 8.77943 -0.594404 0.279983
upperback 1.90207 -0.697213 2.46371
thorax -2.92242 -0.350239 2.47139
lowerneck -19.6287 3.91888 0.67003
upperneck 39.1071 6.27227 -1.87395
head 17.9459 2.24666 0.279667
rclavicle -4.79071e-014 1.59028e-015
rhumerus -41.5711 9.23822 -78.515
rradius 42.7463
rwrist -6.84339
rhand -15.4201 21.6408
rfingers 7.12502
rthumb 10.7595 -8.06361
lclavicle -4.79071e-014 1.59028e-015
lhumerus -57.5301 -2.55284 91.2712
lradius 34.9957
lwrist 2.80267
lhand -10.8253 25.4067
lfingers 7.12502
lthumb 15.1888 54.8293
rfemur -29.5135 8.42963 17.6785
rtibia 70.9586
rfoot -28.8615 2.64886
rtoes -22.5855
lfemur -37.7193 -9.55345 -10.9151
ltibia 39.0372
lfoot 15.6691 -4.33097
ltoes -21.0039
3111
root 14.817 20.1935 25.8275 364.458 -22.4431 -357.56
lowerback 8.2368 -0.724065 -0.0122455
upperback 2.21051 -0.915847 2.28447
thorax -2.29175 -0.463562 2.45935
lowerneck -20.2088 4.13611 1.10014
upperneck 38.7631 6.51088 -2.09068
head 17.9406 2.37201 0.166845
rclavicle 4.11484e-014 -3.97569e-015
rhumerus -40.6813 8.98962 -78.3931
rradius 43.3052
rwrist -6.965
rhand -15.1976 21.7993
rfingers 7.12502
rthumb 10.9742 -7.89382
lclavicle 4.11484e-014 -3.97569e-015
lhumerus -57.3465 -3.0771 91.7581
lradius 35.4589
lwrist 3.26919
lhand -10.9163 25.002
lfingers 7.12502
lthumb 15.1011 54.4311
rfemur -31.0706 7.95275 16.8996
rtibia 72.5306
rfoot -28.2507 3.47722
rtoes -22.7586
lfemur -37.8386 -10.4342 -10.7493
ltibia 37.5408
lfoot 16.7848 -3.70383
ltoes -20.4985
3112
root 14.8319 20.1481 25.9894 364.372 -23.647 -357.501
lowerback 8.235 -0.791215 -0.460091
upperback 1.85792 -1.03066 2.44164
thorax -2.63938 -0.513091 2.89167
lowerneck -19.713 4.54729 1.67941
upperneck 38.9888 7.13093 -2.63829
head 18.0249 2.62091 -0.0698943
rclavicle -2.16675e-014 3.97569e-014
rhumerus -41.5598 10.0297 -78.3579
rradius 44.1002
rwrist -7.34452
rhand -14.8844 21.6047
rfingers 7.12502
rthumb 11.2763 -8.07216
lclavicle -2.16675e-014 3.97569e-014
lhumerus -59.0949 -2.35857 92.1917
lradius 36.3034
lwrist 3.20973
lhand -10.9446 24.4891
lfingers 7.12502
lthumb 15.0739 53.9203
rfemur -31.2148 8.21649 16.4079
rtibia 73.6754
rfoot -27.7953 4.18658
rtoes -21.8167
lfemur -36.5743 -11.0704 -10.6345
ltibia 36.1876
lfoot 16.8663 -3.03453
ltoes -21.2549
